<?xml version="1.0" standalone="no"?>
<!DOCTYPE svg PUBLIC "-//W3C//DTD SVG 20010904//EN"
 "http://www.w3.org/TR/2001/REC-SVG-20010904/DTD/svg10.dtd">
<svg version="1.0" xmlns="http://www.w3.org/2000/svg"
 width="1330.000000pt" height="789.000000pt" viewBox="0 0 1330.000000 789.000000"
 preserveAspectRatio="xMidYMid meet">
<metadata>
Created by potrace 1.16, written by Peter Selinger 2001-2019
</metadata>
<g transform="translate(0.000000,789.000000) scale(0.100000,-0.100000)"
fill="#000000" stroke="none">
<path d="M7175 5555 c-38 -7 -106 -25 -150 -39 -82 -28 -345 -153 -345 -165 0
-8 190 -81 213 -81 10 0 34 8 55 19 64 33 206 79 265 86 l57 7 117 -113 c65
-62 192 -186 283 -275 l166 -162 -96 -37 c-140 -55 -421 -194 -535 -266 -235
-147 -444 -330 -571 -499 -69 -91 -150 -243 -160 -300 -5 -29 3 -20 51 55 71
112 110 161 204 253 280 276 807 537 1359 673 73 18 131 36 130 40 -7 19 -824
802 -845 810 -33 12 -113 10 -198 -6z"/>
<path d="M7141 5339 c-64 -25 -141 -110 -141 -156 0 -12 -2 -23 -5 -23 -2 0
-115 41 -251 91 -287 106 -250 105 -445 8 -359 -180 -610 -489 -695 -857 -8
-35 -13 -66 -10 -69 2 -2 27 40 55 94 110 210 286 414 466 541 80 57 284 166
325 174 9 2 187 -60 396 -137 l381 -139 -86 -65 c-155 -115 -304 -246 -441
-387 -255 -262 -410 -507 -469 -742 -26 -101 -37 -207 -22 -216 7 -4 11 1 11
13 0 36 52 184 93 266 183 365 625 765 1227 1113 58 33 105 63 105 67 0 4 -90
40 -200 81 -110 41 -219 81 -243 90 l-43 16 46 30 c84 55 124 167 73 202 -25
18 -90 20 -127 5z"/>
<path d="M6324 5071 c-89 -41 -157 -128 -157 -204 0 -57 29 -82 96 -81 119 2
247 117 247 221 0 61 -25 83 -92 83 -30 0 -71 -9 -94 -19z"/>
<path d="M2780 2400 c0 -11 6 -20 14 -20 8 0 22 -10 30 -22 14 -20 16 -90 16
-568 0 -478 -2 -548 -16 -568 -8 -12 -22 -22 -30 -22 -8 0 -14 -10 -14 -25 l0
-25 200 0 200 0 0 25 c0 15 -6 25 -14 25 -8 0 -22 10 -30 22 -13 19 -16 58
-16 230 l0 208 167 -2 168 -3 142 -205 c78 -113 142 -213 143 -223 0 -11 -9
-21 -20 -24 -13 -3 -20 -14 -20 -29 l0 -24 235 0 235 0 0 25 c0 20 -5 25 -25
25 -40 0 -83 49 -239 270 l-146 204 66 18 c82 23 115 40 165 85 107 97 135
294 65 449 -43 94 -137 160 -260 183 -38 7 -235 11 -538 11 -471 0 -478 0
-478 -20z m950 -222 c59 -30 82 -75 77 -145 -5 -66 -28 -100 -84 -125 -41 -18
-74 -21 -324 -25 l-279 -6 0 161 0 162 283 0 c273 0 284 -1 327 -22z"/>
<path d="M5283 2223 l-20 -28 -482 -3 c-456 -3 -481 -4 -481 -21 0 -10 11 -23
25 -29 l25 -12 0 -455 0 -455 -25 -12 c-16 -7 -25 -19 -25 -35 l0 -23 503 -2
502 -3 10 -22 c5 -13 18 -23 27 -23 16 0 18 14 18 155 0 144 -1 155 -18 155
-11 0 -24 -11 -30 -24 -6 -14 -22 -26 -42 -30 -18 -3 -174 -6 -346 -6 l-314 0
0 115 0 115 210 0 211 0 17 -30 c9 -16 25 -30 35 -30 15 0 17 14 17 160 0 144
-2 160 -17 160 -10 0 -27 -12 -39 -27 l-22 -28 -206 -3 -206 -3 0 105 0 106
330 0 331 0 17 -30 c35 -62 42 -40 42 130 0 172 -5 188 -47 133z"/>
<path d="M5510 2172 c0 -11 11 -24 25 -30 l25 -12 0 -455 0 -455 -25 -12 c-16
-7 -25 -19 -25 -35 l0 -23 175 0 175 0 0 25 c0 14 -6 25 -13 25 -8 0 -21 8
-31 18 -15 17 -16 49 -14 301 l3 283 172 -309 c95 -169 178 -316 185 -325 11
-15 37 23 206 309 l192 327 0 -292 0 -292 -25 -12 c-16 -7 -25 -19 -25 -35 l0
-23 185 0 185 0 0 25 c0 15 -6 25 -14 25 -8 0 -22 10 -30 22 -14 20 -16 80
-16 453 0 373 2 433 16 453 8 12 22 22 30 22 8 0 14 9 14 20 0 19 -7 20 -215
20 -190 0 -215 -2 -215 -16 0 -9 10 -24 22 -33 15 -13 19 -24 15 -42 -4 -13
-71 -138 -151 -277 l-143 -254 -137 247 c-76 135 -140 261 -143 280 -4 27 -1
36 16 47 11 7 21 21 21 30 0 17 -17 18 -220 18 -207 0 -220 -1 -220 -18z"/>
<path d="M7060 2172 c0 -11 11 -24 25 -30 l25 -12 0 -455 0 -455 -25 -12 c-16
-7 -25 -19 -25 -35 l0 -23 185 0 185 0 0 25 c0 14 -4 25 -10 25 -5 0 -19 9
-30 20 -19 19 -20 33 -20 453 0 375 2 435 16 455 8 12 22 22 30 22 8 0 14 9
14 20 0 19 -7 20 -185 20 -173 0 -185 -1 -185 -18z"/>
<path d="M7610 2172 c0 -11 11 -24 25 -30 l25 -12 0 -455 0 -455 -25 -12 c-16
-7 -25 -19 -25 -35 l0 -23 185 0 185 0 0 25 c0 15 -6 25 -14 25 -8 0 -22 10
-30 22 -13 18 -16 53 -16 174 l0 151 243 6 c267 6 324 14 410 60 99 52 139
124 140 252 2 173 -73 272 -233 309 -53 13 -142 16 -467 16 -385 0 -403 -1
-403 -18z m790 -207 c37 -19 50 -43 50 -90 0 -95 -29 -106 -307 -113 l-223 -5
0 111 0 112 225 0 c182 0 232 -3 255 -15z"/>
<path d="M9190 2175 c0 -9 12 -26 26 -39 23 -19 26 -27 20 -57 -4 -19 -100
-218 -214 -444 -186 -367 -210 -412 -239 -425 -22 -10 -33 -22 -33 -37 l0 -23
195 0 195 0 0 25 c0 14 -6 25 -13 25 -17 0 -47 32 -47 50 0 8 16 49 37 92 l36
78 231 0 232 0 37 -63 c46 -79 55 -118 32 -140 -9 -10 -23 -17 -31 -17 -8 0
-14 -10 -14 -25 l0 -25 215 0 215 0 0 24 c0 17 -7 26 -25 30 -34 9 -59 49
-269 443 -259 487 -246 456 -201 491 14 11 25 27 25 36 0 14 -23 16 -205 16
-178 0 -205 -2 -205 -15z m339 -597 c1 -5 -67 -8 -149 -8 l-150 0 76 152 76
153 74 -145 c40 -80 73 -148 73 -152z"/>
<path d="M10150 2172 c0 -11 11 -24 25 -30 l25 -12 0 -455 0 -455 -25 -12
c-16 -7 -25 -19 -25 -35 l0 -23 185 0 185 0 0 25 c0 14 -4 25 -10 25 -5 0 -19
9 -30 20 -19 19 -20 33 -20 453 0 375 2 435 16 455 8 12 22 22 30 22 8 0 14 9
14 20 0 19 -7 20 -185 20 -173 0 -185 -1 -185 -18z"/>
</g>
</svg>
